<?xml version="1.0" encoding="UTF-8" standalone="no"?>
<!DOCTYPE svg PUBLIC "-//W3C//DTD SVG 1.1//EN" "http://www.w3.org/Graphics/SVG/1.1/DTD/svg11.dtd">
<svg version="1.1" xmlns="http://www.w3.org/2000/svg" xmlns:xlink="http://www.w3.org/1999/xlink" preserveAspectRatio="xMidYMid meet" viewBox="0 0 639.987 442.205" width="639.99" height="442.21"><defs><path d="M385.13 4.53C385.13 8.27 379.4 10.93 361.66 15.2C351.4 17.73 337.4 21.6 330.46 23.73C309.13 30.53 239.26 44.4 218.06 46.13C205 47.2 202.86 48.53 201.53 56.8C201.13 59.73 199.53 64.27 197.93 67.2C196.33 70 194.06 74.27 192.86 76.53C191.66 78.8 190.6 82.93 190.46 85.6C190.46 88.27 189.93 90.93 189.13 91.33C187.66 92.27 189 99.87 191 102.13C192.06 103.33 193.53 102.8 196.86 99.6C199.93 96.53 201 96.13 200.33 97.87C199.53 100 199.8 100.27 201.66 99.6C203.53 98.8 204.86 100.53 208.46 108.67C211 114.13 214.73 123.6 217 129.6C225 152.27 232.2 164.13 249.13 182C253.66 186.8 255.8 190.27 256.46 194C257.13 198 258.86 200.8 263.26 204.8C269.8 210.93 270.46 213.6 266.6 221.07C265.13 223.87 263.13 229.33 261.93 233.47C259.93 240.27 259.93 241.6 262.33 252.8C264.6 263.73 264.6 265.87 263 276.67C261.66 284.93 261.4 292.8 262.2 302C262.73 309.33 263 316.53 262.86 318C262.73 319.47 263.4 326.4 264.46 333.33C265.53 340.27 266.2 351.2 266.06 357.6C265.93 364 266.33 369.73 267.13 370.4C267.93 371.2 287.13 369.87 315.8 367.2C341.8 364.8 363.66 362.8 364.33 362.67C365 362.67 365.13 362.27 364.73 361.73C364.2 361.33 364.46 360.13 365.13 359.33C366.06 358.27 365.13 351.07 362.46 337.2C360.06 324.93 357.93 307.73 357 294.67C356.9 293.2 356.41 285.87 355.53 272.67C358.41 265.31 360.01 261.22 360.33 260.4C365.8 245.87 369.8 221.2 368.46 209.47C367.8 203.07 368.33 199.87 372.46 187.33C375.66 177.87 377.8 168.4 378.46 160.67C379.4 150 380.6 145.73 385.13 135.33C389 126.13 395.8 107.6 395.8 106C395.8 104.93 396.6 104 397.53 103.87C407.4 103.07 413.8 101.07 417.53 97.6C419.53 95.73 421.13 94.67 421.13 95.47C421.13 96.13 421.8 95.6 422.6 94.27C423.4 93.07 424.6 92.27 425.26 92.8C426.06 93.2 428.2 92.27 429.93 90.53C431.8 88.8 434.33 87.33 435.53 87.33C440.06 87.33 441.26 67.07 437.13 60.27C435.66 57.87 434.46 55.33 434.46 54.53C434.46 53.33 423.66 33.07 416.2 20.4C412.33 13.6 396.33 0 392.46 0C391 0 388.73 0.67 387.53 1.47C386.2 2.13 385.13 3.6 385.13 4.53ZM383.53 34.4C387.66 42.93 384.86 59.87 375.8 80.13C373 86.4 368.86 98.67 366.73 107.47C362.86 123.47 360.6 129.33 358.73 129.33C356.86 129.33 348.2 141.73 343 151.87C340.2 157.33 337.8 161.2 337.4 160.27C337.13 159.47 337.66 157.6 338.46 156.13C339.26 154.53 339.66 153.33 339.53 153.33C335.4 153.6 326.86 157.47 325.8 159.73C325.13 161.2 323.13 163.07 321.53 163.87C317.66 165.6 295 170.13 284.2 171.33C276.86 172.13 275.8 172 275.8 170.13C275.8 168.93 273.13 165.07 269.93 161.6C266.86 158.13 261.93 150.93 259.13 145.6C255.13 137.87 250.46 132.27 235.66 117.6C220.6 102.53 217.13 98.4 217.13 95.33C217.13 93.33 219.26 87.2 221.8 81.73C224.46 76.4 226.2 71.33 225.8 70.67C224.86 69.2 228.33 68.4 257.8 62.67C285.26 57.33 300.73 52.93 327.66 42.53C344.46 36 374.2 26.13 378.86 25.47C379.4 25.33 380.2 26.4 380.6 27.6C381 28.93 382.33 32 383.53 34.4ZM322.46 292C317 297.07 317.13 301.73 323.13 307.47C325.66 309.87 327.8 313.07 327.8 314.53C327.8 316.8 327.26 317.07 323.53 316C314.73 313.47 309.4 304.27 311.8 295.87C313.26 290.8 315.26 288.27 320.46 285.07C325.53 282 326.46 282 326.46 285.47C326.46 287.07 324.73 290 322.46 292ZM344.46 308C342.6 311.73 336.46 316 333.13 316C330.46 316 331.8 310.4 335.13 307.73C340.06 303.87 339.8 296 334.6 291.73C329.53 287.47 327.93 282.67 331.53 282.67C332.86 282.67 336.06 284 338.6 285.73C346.33 290.93 348.73 299.87 344.46 308ZM287.13 292C285.66 292 285.13 293.6 285.13 298.53C285.13 307.47 286.46 313.33 288.46 313.33C289.93 313.33 292.46 317.2 291.53 318C291.26 318.27 288.33 318.8 284.86 319.33C284.44 319.4 282.3 319.71 278.46 320.27C278.46 316.83 278.46 314.92 278.46 314.53C278.46 311.33 278.06 303.73 277.66 297.73C277.6 297.01 277.29 293.41 276.73 286.93C279.05 286.53 280.34 286.31 280.6 286.27C288.73 285.07 289.13 285.2 289.13 288.67C289.13 290.8 288.33 292 287.13 292ZM309.13 301.33C309.13 308.67 306.2 313.87 300.6 316.53C294.73 319.33 294.46 319.2 294.46 315.6C294.46 314 295.66 311.87 297.13 310.93C298.73 310 300.46 307.73 301.13 305.87C302.86 301.6 299.8 293.87 295.93 292.67C294.06 292.13 293.13 290.67 293.13 288.4C293.13 285.47 293.53 285.2 296.86 285.87C298.86 286.4 302.46 288.8 304.86 291.33C308.2 294.93 309.13 297.07 309.13 301.33Z" id="h1QEyZJnkG"></path><path d="M266.46 111.33C264.33 117.73 266.33 123.07 273.53 130.8C277.93 135.47 279.13 137.47 278.33 139.47C277.8 140.8 277.26 142.53 277.26 143.33C277.13 144.13 285.26 144.53 299.8 144.13C318.46 143.87 324.33 143.2 332.2 140.8C343.26 137.47 344.46 135.47 339.26 129.2C337.4 126.93 335.8 124 335.8 122.8C335.8 119.73 331.4 115.07 323.4 109.47C315.13 103.73 308.6 102.8 301.66 106.4C301.32 106.58 299.58 107.47 296.46 109.07C293.26 106.75 291.48 105.46 291.13 105.2C284.46 100.53 276.46 100 271.4 104C269.53 105.47 267.26 108.8 266.46 111.33Z" id="chr6lyHA4"></path><path d="M325.8 144.67L326.2 150.13L326.6 155.73C330.6 154.45 332.82 153.74 333.26 153.6C339.13 151.73 339.93 150.93 341.26 146.27C341.93 143.47 342.46 140.67 342.2 140.13C341.93 139.47 338.2 140.27 333.8 141.87C332.73 142.24 330.06 143.17 325.8 144.67Z" id="h2a0By3R8n"></path><path d="M374.86 233.2C373.93 233.6 374.6 242.13 375.66 243.73C376.6 245.2 398.73 244 500.73 236.8C568.86 232 626.6 228 628.86 228C632.6 228 633.13 227.6 633.13 224.27C633.13 216.8 631.8 214.67 627.26 214.8C625 214.93 567.4 219.07 499.13 224C431 228.93 375 233.07 374.86 233.2Z" id="c4xHKuVbSU"></path><path d="M7.53 258.53C7.19 258.54 5.5 258.59 2.46 258.67C3.02 262.43 3.33 264.52 3.4 264.93C3.8 268.53 4.2 271.47 4.33 271.6C4.46 271.73 242.2 255.07 244.86 254.67C245 254.67 245.13 252 245.13 248.67C245.13 248.27 245.13 246.27 245.13 242.67C239.37 242.75 236.17 242.79 235.53 242.8C230.2 242.93 177.8 246.53 119.13 250.8C60.46 255.07 10.2 258.53 7.53 258.53Z" id="gjYdHJUVr"></path><path d="M575.26 270.27C566.73 287.33 576.46 309.87 594.6 315.2C605.93 318.67 606.46 318.4 606.46 310.67C606.46 304.67 606.2 304 603.4 304C594.46 304 585.13 290.8 587 280.8C588.2 274.8 593.66 268.13 599.53 265.73C602.6 264.4 603.8 263.2 603.26 261.87C602.86 260.67 602.46 258 602.46 255.87C602.46 251.87 601.53 251.47 595.8 253.2C586.73 256 579.4 262 575.26 270.27Z" id="dOI8vz9yA"></path><path d="M611.53 265.33C620.2 267.6 625.13 274.8 625.13 284.93C625.13 292.67 620.73 300.13 614.6 302.67C610.73 304.13 610.46 304.8 610.46 310.67C610.46 311.09 610.46 313.23 610.46 317.07C613.5 316.27 615.19 315.82 615.53 315.73C626.06 312.8 633.93 306.13 637.8 296.67C640.6 290.27 640.73 278.13 638.2 272C633.66 261.33 621 252 610.86 252C606.6 252 606.46 252.13 606.46 258C606.46 263.73 606.6 264 611.53 265.33Z" id="b1k7Jy8Cgg"></path><path d="M546.2 278.67C540.2 299.2 539.8 301.33 540.6 310.93C541.4 320.93 542.33 322.8 545.93 320.27C546.6 319.73 551.66 305.73 556.86 288.93C562.2 272.27 566.86 257.73 567.26 256.67C567.93 255.07 567 254.67 563.66 254.8C561.13 254.93 557.66 255.33 555.93 255.87C553 256.67 551.93 259.07 546.2 278.67Z" id="a2aQbcTuXx"></path><path d="M534.46 321.07C537.53 321.6 537.53 321.47 536.73 310.13C536.06 299.87 535 296.67 527.4 279.07C526.83 277.75 523.98 271.17 518.86 259.33L510.73 258.93L502.6 258.53L506.46 266.93C523.17 302.76 532.51 320.8 534.46 321.07Z" id="c256KtCtMC"></path><path d="M440.33 310.93C445 318.67 453.93 324.53 463.53 326C463.9 326.06 465.77 326.37 469.13 326.93C469.13 322.93 469.13 320.71 469.13 320.27C469.13 313.87 469 313.6 464.86 312.8C459.13 311.6 452.06 304.67 450.33 298.4C447.8 288.8 453.26 278.4 463 274.67C465.53 273.73 466.46 272.67 465.93 271.2C465.53 270 465.13 267.33 465.13 265.2C465.13 260.53 463 260.27 454.46 264.13C435.53 272.67 429.4 292.93 440.33 310.93Z" id="a6vwKcpk3Q"></path><path d="M473.26 274C479.26 275.33 486.2 282 487.8 288.13C490.46 297.73 484.33 310 475.66 312.67C473.66 313.33 473.13 314.8 473.13 319.47C473.13 324.53 473.53 325.33 475.8 325.33C483.8 325.33 495.13 316.93 500.2 307.33C504.06 299.87 504.06 286.67 500.06 279.2C494.86 269.07 483 261.33 472.6 261.33C469.4 261.33 469.13 261.73 469.13 267.2C469.13 272.67 469.4 273.2 473.26 274Z" id="j4go8eBGPL"></path><path d="M376.86 267.73C376.06 268.53 379.4 330.67 380.33 331.6C380.46 331.73 383.8 331.6 387.66 331.07C388.13 331.01 390.49 330.75 394.73 330.27L393.8 321.2L392.86 312C395.82 312 397.47 312 397.8 312C402.73 312 402.73 311.87 401.93 307.87C401.53 305.6 401.13 302.8 401.13 301.87C401.13 300.67 399.53 300 396.46 300C396.15 300 394.6 300 391.8 300C391.8 294.88 391.8 292.04 391.8 291.47C391.8 286.8 391.4 282 391 280.8C390.33 279.07 391.13 278.67 395 278.67C399.53 278.67 399.8 278.4 399.66 274.27C399.53 266.4 398.86 266 387.8 266.4C382.33 266.67 377.4 267.2 376.86 267.73Z" id="a3W8WyFn4F"></path><path d="M408.2 278C412.86 279.2 415.8 283.47 415.8 288.93C415.8 293.87 411.93 298.67 407.8 298.67C405.53 298.67 405.13 299.6 405.13 304.4C405.13 307.6 405.4 310.53 405.8 310.93C407.13 312.27 417.4 309.33 421.4 306.53C426.73 302.67 429.26 296.93 429.26 288.67C429.26 275.07 422.6 267.33 409.26 265.73C408.81 265.68 406.54 265.41 402.46 264.93L402.46 269.47C403.26 274.44 405.17 277.29 408.2 278Z" id="b5mjgwAJEJ"></path><path d="M206.46 309.6C200.73 326 195.66 340.4 195.13 341.6C194.33 343.6 195 344 198.86 344C206.73 344 209.8 342.13 211.53 336.27C213.26 330.8 215.4 329.33 222.86 329.33C226.46 329.33 226.6 329.07 226.2 323.6C225.8 318.27 225.66 318 221.66 318.27C221.38 318.29 219.96 318.43 217.4 318.67C219.08 313.63 220.01 310.83 220.2 310.27C223.93 299.33 224.33 278.27 220.86 277.6C219.66 277.33 218.33 277.87 217.8 278.53C217.4 279.33 212.33 293.33 206.46 309.6Z" id="c1fCn0se5T"></path><path d="M232.6 306.93C235.13 311.87 237.13 316.27 237.13 316.67C237.13 317.07 235.26 317.33 233 317.33C229.26 317.33 228.86 317.73 229.66 320.27C230.06 322 230.46 324.8 230.46 326.53C230.46 329.47 230.73 329.6 236.46 328.8C236.86 328.74 238.86 328.43 242.46 327.87L245.4 333.87L248.33 340C252.97 340 255.55 340 256.06 340C260.33 340 263.8 339.6 263.8 339.07C263.8 338.67 256.73 324.53 248.2 307.73C235 282.27 232.06 277.33 229.53 277.33C226.73 277.33 226.73 277.73 227.4 287.6C228.06 295.73 229.13 300 232.6 306.93Z" id="dYODho9Gl"></path><path d="M149.13 315.33C151.13 316.4 157 318.13 162.2 319.33C175.93 322.53 179.8 328.53 170.73 332.67C168.33 333.73 167.8 335.07 167.8 340.27C167.8 343.87 167.93 346.67 168.2 346.67C168.46 346.67 171.66 345.73 175.26 344.67C184.73 341.87 189.4 336.53 190.2 327.6C191.13 316 186.33 312 164.86 306C155 303.33 152.46 299.47 157.66 295.33C161.13 292.53 161.8 289.87 160.33 284.27C159.4 281.07 159.4 281.07 154.33 282.67C137.53 287.73 134.33 307.73 149.13 315.33Z" id="d2GXeCeYj3"></path><path d="M173.13 295.2C177.13 296.53 181.13 297.73 181.8 298.13C182.6 298.4 184.2 296 185.4 292.67C185.55 292.27 186.3 290.27 187.66 286.67C185.18 285.39 183.8 284.68 183.53 284.53C181.26 283.33 175.8 282 171.53 281.73C171.01 281.68 168.44 281.41 163.8 280.93L163.8 285.47C164.42 290.27 167.53 293.51 173.13 295.2Z" id="g2mBTcDNOE"></path><path d="M101.13 296C101.26 302.67 102.33 306.8 105.93 314.53C108.46 319.87 110.46 324.53 110.46 324.8C110.46 325.07 109 325.33 107.13 325.33C104.06 325.33 103.8 325.87 103.8 331.33C103.8 331.73 103.8 333.73 103.8 337.33C107.8 337.33 110.02 337.33 110.46 337.33C117.13 337.33 117.26 337.33 119.66 343.2C119.83 343.58 120.68 345.49 122.2 348.93C126.52 348.53 128.92 348.31 129.4 348.27C133.26 348 136.6 347.47 136.86 347.33C137.13 347.07 130.33 333.07 121.93 316.13C109.53 291.33 105.93 285.33 103.8 285.33C102.33 285.33 101.13 285.73 101 286.27C101 286.93 101 291.2 101.13 296Z" id="a9I3Da2dP"></path><path d="M69.13 351.07C69.13 351.6 72.2 352 76.06 351.73C76.52 351.71 78.84 351.57 83 351.33C84.2 347.49 84.86 345.36 85 344.93C86.73 339.2 87.26 338.67 91.26 338.67C98.46 338.67 99.8 337.6 99.8 331.87C99.8 326.93 99.53 326.67 95.8 326.67C93.66 326.67 91.8 326.13 91.8 325.6C91.8 324.93 93.26 320.27 95 315.2C97.53 307.47 98.06 304 97.4 296.27C96.86 288 96.46 286.67 94.2 286.67C92.73 286.67 91.13 288.13 90.33 290.27C86.73 299.73 69.13 350 69.13 351.07Z" id="bqdsSg5Ro"></path><path d="M7.93 312.4C5.8 319.87 6.6 331.2 9.66 337.07C14.33 346.13 23.66 352.8 33.4 354.13C33.78 354.19 35.69 354.45 39.13 354.93C38.81 351.09 38.63 348.96 38.6 348.53C38.2 342.4 37.8 341.87 32.73 339.33C25.8 335.87 22.33 331.2 21.53 323.6C20.6 316 24.73 308 31.4 304.4C35.66 302.13 35.8 301.87 35 296C34.46 292.67 34.06 289.87 33.93 289.87C33.93 289.73 31.13 290.67 27.93 291.73C19.53 294.53 10.2 304.27 7.93 312.4Z" id="a2V8Imvdug"></path><path d="M44.33 302.93C47.13 303.6 51 305.2 53 306.53C53.23 306.7 54.38 307.55 56.46 309.07C58.78 305.87 60.07 304.09 60.33 303.73C64.6 297.87 64.73 298.13 55.53 293.2C52.73 291.87 47.8 290.27 44.33 289.73C43.93 289.68 41.93 289.41 38.33 288.93L38.73 295.47C39.08 299.73 40.95 302.22 44.33 302.93Z" id="c5davYa564"></path><path d="M138.46 338.13C138.46 339.6 152.73 345.2 159 346.13C165.4 347.07 165.53 346.93 164.73 343.87C164.2 342.13 163.8 339.07 163.8 336.93C163.8 334.13 163.13 333.33 160.86 333.33C159.13 333.33 154.6 331.87 150.73 330C146.73 328.13 143.4 326.67 143.13 326.67C142.86 326.67 141.8 329.07 140.6 332C139.4 334.93 138.46 337.73 138.46 338.13Z" id="d2M4ir4RVC"></path><path d="M48.33 339.6C42.6 342 42.46 342.13 42.46 348.27C42.46 355.87 43.8 356.27 53.8 351.47C59.66 348.67 67.8 341.87 66.33 341.07C66.06 340.8 63.93 338.93 61.66 336.93C58.06 333.73 57.26 333.47 55.93 335.2C55 336.27 51.66 338.27 48.33 339.6Z" id="ctSTJZ89d"></path><path d="M381.13 352C380.2 352 379.8 354.27 380.06 358.27C380.09 358.69 380.22 360.83 380.46 364.67C384.46 364.43 386.68 364.29 387.13 364.27C400.6 363.6 623.4 348 631.53 347.2C632.08 347.15 634.84 346.88 639.8 346.4C639.8 343.44 639.8 341.8 639.8 341.47C639.8 338.8 639.26 336 638.73 335.33C638.06 334.4 624.46 334.93 596.46 336.93C468.86 345.87 382.46 352 381.13 352Z" id="e2twFVJ0KV"></path><path d="M10.06 378.8C9.8 379.07 9.8 381.87 10.2 384.93C10.73 390.4 11 390.67 15 390.67C25 390.53 257.26 373.6 257.93 372.93C258.33 372.53 258.33 369.73 257.8 366.8C257.73 366.44 257.42 364.61 256.86 361.33C252.38 361.41 249.89 361.46 249.4 361.47C245.13 361.6 189.8 365.33 126.06 370C62.46 374.53 10.2 378.53 10.06 378.8Z" id="c1OnZi1t0V"></path><path d="M551.4 378.4C554.33 377.87 555.4 373.33 552.86 371.87C550.33 370.13 549.13 370.4 548.33 372.67C547.13 375.73 548.86 378.93 551.4 378.4Z" id="b30crfRJO7"></path><path d="M524.6 406.67C527.66 406.67 527.8 406.4 527 401.33C525.93 394.53 527.13 389.87 530.33 388.93C534.46 387.87 535.93 389.87 536.73 397.73C537.4 404.8 537.8 405.33 540.86 405.33C544.2 405.33 544.2 405.2 543.4 396.93C543 392.4 542.2 387.6 541.66 386.27C540.6 383.2 534.86 381.87 530.33 383.6C525.8 385.33 525.13 384.8 525.13 379.07C525.13 375.2 524.73 374.67 521.66 374.67C521.44 374.67 520.33 374.67 518.33 374.67L519.13 386.27C520.2 399.87 522.02 406.67 524.6 406.67Z" id="gHqwCZhNA"></path><path d="M616.2 387.6C617 388.4 620.06 389.73 622.86 390.67C629.13 392.67 627.93 395.2 621 394.27C617.53 393.87 615.8 394.13 615.26 395.47C613.66 399.73 625 401.6 630.2 397.87C632.46 396.27 633.13 394.67 632.86 391.6C632.46 387.87 631.66 387.07 626.86 385.6C619.8 383.33 619.4 380.93 626.06 381.6C629.26 381.87 631.13 381.33 631.53 380.13C632.86 376 622.6 374.4 617.4 378.13C614.2 380.4 613.53 385.6 616.2 387.6Z" id="dBJHRBDuI"></path><path d="M459.66 384.53C462.06 386 465.26 383.73 464.86 380.8C464.46 378 461.13 376.4 459.4 378.13C458.06 379.47 458.2 383.73 459.66 384.53Z" id="d4CQzT3uAq"></path><path d="M593.13 380.13C593.13 379.33 591.66 378.67 589.8 378.67C589.57 378.67 588.46 378.67 586.46 378.67C586.94 385.63 587.21 389.49 587.26 390.27C587.8 396.8 588.2 402.13 588.33 402.27C588.46 402.4 589.93 402.27 591.53 401.73C594.06 401.07 594.46 400.13 594.46 394C594.46 386.53 596.46 383.47 600.73 384.27C602.33 384.53 603.26 386.13 603.53 388.67C604.46 399.6 605.13 401.47 608.2 401.07C609.8 400.8 611.13 399.87 611 398.93C610.86 398.13 610.73 394 610.73 390C610.33 378.8 603.8 374 596.06 379.47C594.46 380.53 593.13 380.8 593.13 380.13Z" id="ahU8DaH3x"></path><path d="M501.13 383.47C501.13 385.2 500.6 386.67 499.8 386.67C499.13 386.67 498.46 387.6 498.46 388.67C498.46 389.73 499.4 390.67 500.46 390.67C501.93 390.67 502.46 392.27 502.46 397.07C502.46 404.8 505.53 408.4 511.4 407.73C515.93 407.2 517 402 512.46 402C510.33 402 509.66 400.93 509.4 396.27C509 391.33 509.4 390.4 511.66 389.73C515.66 388.67 515.13 385.33 511.13 385.33C508.46 385.33 507.8 384.67 507.8 382C507.8 378.8 506.33 378.13 502.86 379.6C501.93 379.87 501.13 381.73 501.13 383.47Z" id="f4I4ZgSNmQ"></path><path d="M561.93 385.73C562.46 387.33 563.4 387.47 566.33 386.27C570.33 384.8 574.46 385.6 574.46 388C574.46 388.67 572.33 389.33 569.8 389.33C564.86 389.33 559.8 393.07 559.8 396.67C559.8 397.73 561 399.87 562.6 401.47C564.73 403.6 566.33 404.13 569.53 403.47C571.93 402.93 575.8 402.67 578.33 402.67C578.63 402.68 580.14 402.72 582.86 402.8C582.3 397.36 581.99 394.34 581.93 393.73C581.4 388.53 580.06 383.73 578.86 382.4C576.6 379.87 569.26 379.33 564.2 381.33C560.86 382.67 560.73 382.8 561.93 385.73ZM570.33 398.67C567.53 398.67 565.93 396.53 567.13 394.67C568.06 393.07 575.8 392.8 575.8 394.4C575.8 396.27 572.73 398.67 570.33 398.67Z" id="b2VoYeSfDX"></path><path d="M549.93 405.07C550.06 405.33 551.53 405.2 553 404.67C556.06 403.73 556.6 399.33 555 387.47C554.2 382.13 553.66 381.33 551 381.33C547.8 381.33 547.8 381.33 548.6 392.93C549.13 399.47 549.66 404.93 549.93 405.07Z" id="d7YbukF4yQ"></path><path d="M383 403.2C383.53 405.6 385.66 409.33 387.93 411.47C391.26 414.67 393.13 415.33 398.2 415.33C402.06 415.33 405.93 414.4 408.2 412.8C411.66 410.4 411.8 410.13 409.66 407.87C407.66 405.6 407.13 405.47 405.13 407.33C402.06 410.13 395.4 409.87 392.73 406.93C389.53 403.47 389.93 396.53 393.26 393.2C396.06 390.4 397.4 390.4 404.73 392.67C407 393.33 408.06 393.07 408.73 391.33C410.73 386 397.93 383.2 390.33 387.33C385.53 389.87 381.93 397.73 383 403.2Z" id="d3MUqSv97"></path><path d="M478.46 388.13C478.46 387.33 476.86 386.67 475 386.67C471.4 386.67 471.4 386.67 472.33 394.8C472.73 399.33 473.13 404.8 473.13 406.8C473.13 410 473.66 410.67 476.46 410.67C479.66 410.67 479.8 410.4 479.8 402.13C479.8 394.67 480.2 393.47 482.46 392.67C486.86 391.2 489.13 394.27 489.13 401.6C489.13 406.13 489.66 408.27 491.13 408.8C495.66 410.53 496.6 408.67 495.8 399.33C495.13 392.13 494.46 389.87 491.93 387.87C488.2 384.8 485.4 384.67 481.4 387.47C479.8 388.53 478.46 388.8 478.46 388.13Z" id="a11gBLxUUz"></path><path d="M447.8 390.93C447.8 390 446.33 389.33 444.46 389.33C440.73 389.33 440.33 391.6 441.93 404.93C442.73 411.33 443.13 412 446.2 412C449.26 412 449.4 411.73 448.73 405.73C447.93 398.4 449.4 394.67 453.13 394.67C455.13 394.67 455.8 393.73 455.8 391.33C455.8 387.47 453.4 387.07 450.06 390.27C448.6 391.73 447.8 392 447.8 390.93Z" id="cAi9uep2"></path><path d="M459.8 403.47C459.8 410.27 459.93 410.67 463.13 410.67C466.33 410.67 466.46 410.27 466.46 403.47C466.46 391.6 465.26 388 461.53 388C458.46 388 458.2 388.4 459 392.13C459.4 394.4 459.8 399.6 459.8 403.47Z" id="acjeMmjG1"></path><path d="M419.13 412.8C428.2 416.53 437.13 411.07 437.13 401.73C437.13 392.53 425.4 387.2 417.4 392.8C410.06 397.87 411.13 409.33 419.13 412.8ZM429.93 404.53C429.13 407.6 428.46 408.13 424.86 407.73C420.2 407.33 418.2 403.73 419.93 398.93C420.86 396.53 421.93 395.87 424.6 396.27C426.6 396.53 428.73 397.6 429.53 398.8C430.2 400 430.46 402.53 429.93 404.53Z" id="eczgWgh5c"></path><path d="M247.26 410.4C244.6 418.27 242.46 425.07 242.46 425.6C242.46 426.27 243.93 426.67 245.66 426.67C247.93 426.67 249.13 425.73 249.66 423.33C250.46 420.27 251.13 420 257.8 420C263.8 420 265.13 420.4 265.8 422.67C266.6 425.2 271.66 426.4 273.53 424.53C274.73 423.2 259.66 394.67 257.93 394.8C257.13 394.93 255.53 395.2 254.33 395.6C253 395.87 250.33 401.33 247.26 410.4ZM257.13 414.67C252.6 414.67 252.6 414.8 254.73 407.73C254.84 407.38 255.37 405.6 256.33 402.4C257.69 405.12 258.44 406.63 258.6 406.93C259.93 409.33 261 412.13 261.13 412.93C261.13 414 259.53 414.67 257.13 414.67Z" id="c7rPSFcg3"></path><path d="M349.93 401.73C350.46 402.13 351.93 402 353.4 401.2C356.2 399.73 362.46 400.67 362.46 402.53C362.46 403.07 359.66 404.13 356.2 404.8C348.86 406.27 346.73 408.93 348.6 414.27C349.53 417.2 350.86 418.13 354.06 418.4C356.46 418.67 359.53 418.13 361 417.47C362.6 416.53 363.8 416.53 364.06 417.33C364.33 418 365.66 418.27 367.13 417.87C369.53 417.2 369.8 416.4 369.13 407.87C368.6 400.67 367.8 398 365.8 396.53C363 394.4 356.73 394.27 352.2 396C349.26 397.2 348.2 400 349.93 401.73ZM355.53 413.6C354.73 412.8 354.46 411.2 354.86 410.13C355.93 407.47 362.46 407.33 362.46 410C362.46 412.67 357.26 415.33 355.53 413.6Z" id="cFbTo4QVL"></path><path d="M326.46 398.53C326.46 397.87 325 397.33 323.13 397.33C320.2 397.33 319.8 397.87 319.8 402.27C319.8 405.07 320.2 410.53 320.6 414.27C321.4 420.67 321.8 421.33 324.86 421.33C328.06 421.33 328.2 421.2 327.4 414C326.86 408.53 327.13 406.13 328.6 404.67C333.4 399.87 337.13 403.47 337.13 412.93C337.13 419.6 337.26 420 340.6 420C344.06 420 344.06 420 343.53 410.53C343.13 402.53 342.46 400.67 339.93 398.53C336.2 395.47 334.86 395.47 330.2 397.87C328.06 398.93 326.46 399.33 326.46 398.53Z" id="a26VdlE2BE"></path><path d="M191.8 408C188.06 406 181.66 407.47 179.13 411.07C175.93 415.6 176.6 424.27 180.2 427.73C183.4 430.8 189.66 431.6 193.13 429.33C194.33 428.67 195.4 428.67 195.8 429.33C196.2 430 197.93 430.27 199.53 429.73C202.33 429.07 202.46 428.53 201.8 420.13C199.8 396.93 199.93 397.33 196.2 397.33C193 397.33 192.86 397.6 193.8 403.47C194.6 409.33 194.6 409.47 191.8 408ZM186.86 424.53C183.53 422.4 183 415.87 185.93 413.73C187.26 412.8 188.73 412 189.13 412C189.53 412 191 412.8 192.33 413.73C197.53 417.6 192.2 427.87 186.86 424.53Z" id="c1XZX2aju"></path><path d="M293.13 411.33C293.13 420.4 302.06 425.2 311.13 421.07C317.53 418.13 314.73 413.73 308.06 416.27C304.86 417.6 303.53 417.47 301.66 416C299.66 414.13 299.66 414 302.6 413.2C304.33 412.67 308.06 412.27 310.86 412.13C315.26 412 315.8 411.6 315.8 408.67C315.8 401.33 306.86 396.8 298.86 400C295.13 401.6 293.13 405.33 293.13 411.33ZM300.2 408.8C299.8 408.4 299.8 407.2 300.33 406C301.26 403.47 307.93 403.73 308.73 406.27C309.26 407.73 301.53 410.13 300.2 408.8Z" id="cyLyhZyxs"></path><path d="M276.33 407.6C276.73 410.93 277.13 416 277.13 418.8C277.13 423.47 277.53 424 280.46 424C283.66 424 283.8 423.6 283.8 416C283.8 408.67 284.06 408 287.13 407.2C289.53 406.67 290.46 405.47 290.46 403.2C290.46 399.47 288.33 399.07 284.86 402.27C282.6 404.27 282.46 404.27 282.46 402.27C282.46 400 282.2 399.87 277.93 400.93C275.8 401.47 275.53 402.4 276.33 407.6Z" id="bbB6OgijA"></path><path d="M214.73 411.33C217.93 411.33 220.46 412 220.73 412.93C221.13 414.13 219.93 414.67 216.86 414.67C207.4 414.67 202.86 422.93 209.8 427.47C212.2 428.93 214.2 429.33 216.73 428.53C218.86 428 222.33 427.6 224.73 427.87C225.01 427.88 226.44 427.97 229 428.13C228.52 422.69 228.25 419.67 228.2 419.07C227.8 413.87 226.6 408.93 225.4 407.6C222.86 404.8 213.4 404.53 209.66 407.2C206.2 409.73 208.2 411.33 214.73 411.33ZM216.73 423.73C213.8 424.13 213.13 423.6 213.13 421.47C213.13 419.2 213.93 418.67 217.26 418.67C220.46 418.67 221.26 419.2 220.86 420.93C220.6 422.4 219 423.47 216.73 423.73Z" id="a4aJx9ikr"></path><path d="M67.8 411.6C67.8 414.67 68.2 414.93 72.33 414.4C72.63 414.36 74.14 414.19 76.86 413.87C77.34 418.67 77.61 421.33 77.66 421.87C78.06 426.13 78.46 431.73 78.46 434.13C78.46 438.13 78.86 438.67 82.06 438.67C82.29 438.67 83.45 438.67 85.53 438.67L84.73 426L83.93 413.33C86.65 413.33 88.16 413.33 88.46 413.33C92.6 413.33 93.13 412.93 93.13 410C93.13 407.33 92.46 406.67 90.2 406.93C88.46 407.07 82.73 407.47 77.53 407.6C68.06 408.13 67.8 408.27 67.8 411.6Z" id="a1olLhyryh"></path><path d="M150.2 422.27C150.73 432.93 150.86 433.33 153.93 433.33C157 433.33 157.13 432.93 157.13 425.33C157.13 418 157.4 417.07 160.46 415.73C162.33 414.93 163.8 413.2 163.8 411.73C163.8 408.8 161.4 408.67 158.2 411.6C155.93 413.6 155.8 413.6 155.8 411.6C155.8 409.33 151.13 408.4 150.06 410.27C149.8 410.93 149.8 416.27 150.2 422.27Z" id="g1VAkjqrgy"></path><path d="M24.73 426C24.73 431.73 25.26 432.93 29.53 436.93C36.33 443.07 44.33 443.2 51 437.2C56.86 432.13 58.2 426.13 55.13 419.47C52.33 413.6 47.26 410.67 39.8 410.67C35.53 410.67 33.4 411.6 29.53 415.07C25.26 419.07 24.73 420.27 24.73 426ZM49.13 426C49.13 429.2 48.2 431.2 45.66 433.2C43.66 434.8 41.4 436 40.46 436C39.53 436 37.26 434.8 35.26 433.2C30.46 429.47 30.46 422.53 35.26 418.8C37.26 417.2 39.53 416 40.46 416C41.4 416 43.66 417.2 45.66 418.8C48.2 420.8 49.13 422.8 49.13 426Z" id="ah8JRIrsR"></path><path d="M130.2 427.87C128.33 426.8 127.8 424.93 127.8 419.33C127.8 412.27 127.66 412 124.06 412C123.82 412 122.62 412 120.46 412C120.86 417.44 121.08 420.46 121.13 421.07C121.53 426.13 122.6 431.2 123.66 432.4C125.93 435.33 132.86 435.33 136.06 432.4C138.33 430.4 138.46 430.4 138.46 432.4C138.46 434.8 140.73 435.33 143.13 433.6C144.06 433.07 144.33 428.4 144.06 421.6C143.53 411.07 143.4 410.67 140.33 410.67C137.26 410.67 137.13 411.07 137.13 418.67C137.13 427.33 134.86 430.4 130.2 427.87Z" id="b29RwtzB2L"></path><path d="M105.13 436.67C112.33 436.67 117.13 432 117.13 425.07C117.13 417.87 112.46 413.33 105.13 413.33C101.13 413.33 98.86 414.13 96.46 416.67C88.86 424.13 94.2 436.67 105.13 436.67ZM102.46 430.67C97.53 428 99.66 418.67 105.13 418.67C106.33 418.67 107.93 419.33 108.86 420.27C113.66 425.07 108.33 433.73 102.46 430.67Z" id="alQWta190"></path></defs><g><g><g><use xlink:href="#h1QEyZJnkG" opacity="1" fill="#000000" fill-opacity="1"></use><g><use xlink:href="#h1QEyZJnkG" opacity="1" fill-opacity="0" stroke="#000000" stroke-width="1" stroke-opacity="0"></use></g></g><g><use xlink:href="#chr6lyHA4" opacity="1" fill="#000000" fill-opacity="1"></use><g><use xlink:href="#chr6lyHA4" opacity="1" fill-opacity="0" stroke="#000000" stroke-width="1" stroke-opacity="0"></use></g></g><g><use xlink:href="#h2a0By3R8n" opacity="1" fill="#000000" fill-opacity="1"></use><g><use xlink:href="#h2a0By3R8n" opacity="1" fill-opacity="0" stroke="#000000" stroke-width="1" stroke-opacity="0"></use></g></g><g><use xlink:href="#c4xHKuVbSU" opacity="1" fill="#000000" fill-opacity="1"></use><g><use xlink:href="#c4xHKuVbSU" opacity="1" fill-opacity="0" stroke="#000000" stroke-width="1" stroke-opacity="0"></use></g></g><g><use xlink:href="#gjYdHJUVr" opacity="1" fill="#000000" fill-opacity="1"></use><g><use xlink:href="#gjYdHJUVr" opacity="1" fill-opacity="0" stroke="#000000" stroke-width="1" stroke-opacity="0"></use></g></g><g><use xlink:href="#dOI8vz9yA" opacity="1" fill="#000000" fill-opacity="1"></use><g><use xlink:href="#dOI8vz9yA" opacity="1" fill-opacity="0" stroke="#000000" stroke-width="1" stroke-opacity="0"></use></g></g><g><use xlink:href="#b1k7Jy8Cgg" opacity="1" fill="#000000" fill-opacity="1"></use><g><use xlink:href="#b1k7Jy8Cgg" opacity="1" fill-opacity="0" stroke="#000000" stroke-width="1" stroke-opacity="0"></use></g></g><g><use xlink:href="#a2aQbcTuXx" opacity="1" fill="#000000" fill-opacity="1"></use><g><use xlink:href="#a2aQbcTuXx" opacity="1" fill-opacity="0" stroke="#000000" stroke-width="1" stroke-opacity="0"></use></g></g><g><use xlink:href="#c256KtCtMC" opacity="1" fill="#000000" fill-opacity="1"></use><g><use xlink:href="#c256KtCtMC" opacity="1" fill-opacity="0" stroke="#000000" stroke-width="1" stroke-opacity="0"></use></g></g><g><use xlink:href="#a6vwKcpk3Q" opacity="1" fill="#000000" fill-opacity="1"></use><g><use xlink:href="#a6vwKcpk3Q" opacity="1" fill-opacity="0" stroke="#000000" stroke-width="1" stroke-opacity="0"></use></g></g><g><use xlink:href="#j4go8eBGPL" opacity="1" fill="#000000" fill-opacity="1"></use><g><use xlink:href="#j4go8eBGPL" opacity="1" fill-opacity="0" stroke="#000000" stroke-width="1" stroke-opacity="0"></use></g></g><g><use xlink:href="#a3W8WyFn4F" opacity="1" fill="#000000" fill-opacity="1"></use><g><use xlink:href="#a3W8WyFn4F" opacity="1" fill-opacity="0" stroke="#000000" stroke-width="1" stroke-opacity="0"></use></g></g><g><use xlink:href="#b5mjgwAJEJ" opacity="1" fill="#000000" fill-opacity="1"></use><g><use xlink:href="#b5mjgwAJEJ" opacity="1" fill-opacity="0" stroke="#000000" stroke-width="1" stroke-opacity="0"></use></g></g><g><use xlink:href="#c1fCn0se5T" opacity="1" fill="#000000" fill-opacity="1"></use><g><use xlink:href="#c1fCn0se5T" opacity="1" fill-opacity="0" stroke="#000000" stroke-width="1" stroke-opacity="0"></use></g></g><g><use xlink:href="#dYODho9Gl" opacity="1" fill="#000000" fill-opacity="1"></use><g><use xlink:href="#dYODho9Gl" opacity="1" fill-opacity="0" stroke="#000000" stroke-width="1" stroke-opacity="0"></use></g></g><g><use xlink:href="#d2GXeCeYj3" opacity="1" fill="#000000" fill-opacity="1"></use><g><use xlink:href="#d2GXeCeYj3" opacity="1" fill-opacity="0" stroke="#000000" stroke-width="1" stroke-opacity="0"></use></g></g><g><use xlink:href="#g2mBTcDNOE" opacity="1" fill="#000000" fill-opacity="1"></use><g><use xlink:href="#g2mBTcDNOE" opacity="1" fill-opacity="0" stroke="#000000" stroke-width="1" stroke-opacity="0"></use></g></g><g><use xlink:href="#a9I3Da2dP" opacity="1" fill="#000000" fill-opacity="1"></use><g><use xlink:href="#a9I3Da2dP" opacity="1" fill-opacity="0" stroke="#000000" stroke-width="1" stroke-opacity="0"></use></g></g><g><use xlink:href="#bqdsSg5Ro" opacity="1" fill="#000000" fill-opacity="1"></use><g><use xlink:href="#bqdsSg5Ro" opacity="1" fill-opacity="0" stroke="#000000" stroke-width="1" stroke-opacity="0"></use></g></g><g><use xlink:href="#a2V8Imvdug" opacity="1" fill="#000000" fill-opacity="1"></use><g><use xlink:href="#a2V8Imvdug" opacity="1" fill-opacity="0" stroke="#000000" stroke-width="1" stroke-opacity="0"></use></g></g><g><use xlink:href="#c5davYa564" opacity="1" fill="#000000" fill-opacity="1"></use><g><use xlink:href="#c5davYa564" opacity="1" fill-opacity="0" stroke="#000000" stroke-width="1" stroke-opacity="0"></use></g></g><g><use xlink:href="#d2M4ir4RVC" opacity="1" fill="#000000" fill-opacity="1"></use><g><use xlink:href="#d2M4ir4RVC" opacity="1" fill-opacity="0" stroke="#000000" stroke-width="1" stroke-opacity="0"></use></g></g><g><use xlink:href="#ctSTJZ89d" opacity="1" fill="#000000" fill-opacity="1"></use><g><use xlink:href="#ctSTJZ89d" opacity="1" fill-opacity="0" stroke="#000000" stroke-width="1" stroke-opacity="0"></use></g></g><g><use xlink:href="#e2twFVJ0KV" opacity="1" fill="#000000" fill-opacity="1"></use><g><use xlink:href="#e2twFVJ0KV" opacity="1" fill-opacity="0" stroke="#000000" stroke-width="1" stroke-opacity="0"></use></g></g><g><use xlink:href="#c1OnZi1t0V" opacity="1" fill="#000000" fill-opacity="1"></use><g><use xlink:href="#c1OnZi1t0V" opacity="1" fill-opacity="0" stroke="#000000" stroke-width="1" stroke-opacity="0"></use></g></g><g><use xlink:href="#b30crfRJO7" opacity="1" fill="#000000" fill-opacity="1"></use><g><use xlink:href="#b30crfRJO7" opacity="1" fill-opacity="0" stroke="#000000" stroke-width="1" stroke-opacity="0"></use></g></g><g><use xlink:href="#gHqwCZhNA" opacity="1" fill="#000000" fill-opacity="1"></use><g><use xlink:href="#gHqwCZhNA" opacity="1" fill-opacity="0" stroke="#000000" stroke-width="1" stroke-opacity="0"></use></g></g><g><use xlink:href="#dBJHRBDuI" opacity="1" fill="#000000" fill-opacity="1"></use><g><use xlink:href="#dBJHRBDuI" opacity="1" fill-opacity="0" stroke="#000000" stroke-width="1" stroke-opacity="0"></use></g></g><g><use xlink:href="#d4CQzT3uAq" opacity="1" fill="#000000" fill-opacity="1"></use><g><use xlink:href="#d4CQzT3uAq" opacity="1" fill-opacity="0" stroke="#000000" stroke-width="1" stroke-opacity="0"></use></g></g><g><use xlink:href="#ahU8DaH3x" opacity="1" fill="#000000" fill-opacity="1"></use><g><use xlink:href="#ahU8DaH3x" opacity="1" fill-opacity="0" stroke="#000000" stroke-width="1" stroke-opacity="0"></use></g></g><g><use xlink:href="#f4I4ZgSNmQ" opacity="1" fill="#000000" fill-opacity="1"></use><g><use xlink:href="#f4I4ZgSNmQ" opacity="1" fill-opacity="0" stroke="#000000" stroke-width="1" stroke-opacity="0"></use></g></g><g><use xlink:href="#b2VoYeSfDX" opacity="1" fill="#000000" fill-opacity="1"></use><g><use xlink:href="#b2VoYeSfDX" opacity="1" fill-opacity="0" stroke="#000000" stroke-width="1" stroke-opacity="0"></use></g></g><g><use xlink:href="#d7YbukF4yQ" opacity="1" fill="#000000" fill-opacity="1"></use><g><use xlink:href="#d7YbukF4yQ" opacity="1" fill-opacity="0" stroke="#000000" stroke-width="1" stroke-opacity="0"></use></g></g><g><use xlink:href="#d3MUqSv97" opacity="1" fill="#000000" fill-opacity="1"></use><g><use xlink:href="#d3MUqSv97" opacity="1" fill-opacity="0" stroke="#000000" stroke-width="1" stroke-opacity="0"></use></g></g><g><use xlink:href="#a11gBLxUUz" opacity="1" fill="#000000" fill-opacity="1"></use><g><use xlink:href="#a11gBLxUUz" opacity="1" fill-opacity="0" stroke="#000000" stroke-width="1" stroke-opacity="0"></use></g></g><g><use xlink:href="#cAi9uep2" opacity="1" fill="#000000" fill-opacity="1"></use><g><use xlink:href="#cAi9uep2" opacity="1" fill-opacity="0" stroke="#000000" stroke-width="1" stroke-opacity="0"></use></g></g><g><use xlink:href="#acjeMmjG1" opacity="1" fill="#000000" fill-opacity="1"></use><g><use xlink:href="#acjeMmjG1" opacity="1" fill-opacity="0" stroke="#000000" stroke-width="1" stroke-opacity="0"></use></g></g><g><use xlink:href="#eczgWgh5c" opacity="1" fill="#000000" fill-opacity="1"></use><g><use xlink:href="#eczgWgh5c" opacity="1" fill-opacity="0" stroke="#000000" stroke-width="1" stroke-opacity="0"></use></g></g><g><use xlink:href="#c7rPSFcg3" opacity="1" fill="#000000" fill-opacity="1"></use><g><use xlink:href="#c7rPSFcg3" opacity="1" fill-opacity="0" stroke="#000000" stroke-width="1" stroke-opacity="0"></use></g></g><g><use xlink:href="#cFbTo4QVL" opacity="1" fill="#000000" fill-opacity="1"></use><g><use xlink:href="#cFbTo4QVL" opacity="1" fill-opacity="0" stroke="#000000" stroke-width="1" stroke-opacity="0"></use></g></g><g><use xlink:href="#a26VdlE2BE" opacity="1" fill="#000000" fill-opacity="1"></use><g><use xlink:href="#a26VdlE2BE" opacity="1" fill-opacity="0" stroke="#000000" stroke-width="1" stroke-opacity="0"></use></g></g><g><use xlink:href="#c1XZX2aju" opacity="1" fill="#000000" fill-opacity="1"></use><g><use xlink:href="#c1XZX2aju" opacity="1" fill-opacity="0" stroke="#000000" stroke-width="1" stroke-opacity="0"></use></g></g><g><use xlink:href="#cyLyhZyxs" opacity="1" fill="#000000" fill-opacity="1"></use><g><use xlink:href="#cyLyhZyxs" opacity="1" fill-opacity="0" stroke="#000000" stroke-width="1" stroke-opacity="0"></use></g></g><g><use xlink:href="#bbB6OgijA" opacity="1" fill="#000000" fill-opacity="1"></use><g><use xlink:href="#bbB6OgijA" opacity="1" fill-opacity="0" stroke="#000000" stroke-width="1" stroke-opacity="0"></use></g></g><g><use xlink:href="#a4aJx9ikr" opacity="1" fill="#000000" fill-opacity="1"></use><g><use xlink:href="#a4aJx9ikr" opacity="1" fill-opacity="0" stroke="#000000" stroke-width="1" stroke-opacity="0"></use></g></g><g><use xlink:href="#a1olLhyryh" opacity="1" fill="#000000" fill-opacity="1"></use><g><use xlink:href="#a1olLhyryh" opacity="1" fill-opacity="0" stroke="#000000" stroke-width="1" stroke-opacity="0"></use></g></g><g><use xlink:href="#g1VAkjqrgy" opacity="1" fill="#000000" fill-opacity="1"></use><g><use xlink:href="#g1VAkjqrgy" opacity="1" fill-opacity="0" stroke="#000000" stroke-width="1" stroke-opacity="0"></use></g></g><g><use xlink:href="#ah8JRIrsR" opacity="1" fill="#000000" fill-opacity="1"></use><g><use xlink:href="#ah8JRIrsR" opacity="1" fill-opacity="0" stroke="#000000" stroke-width="1" stroke-opacity="0"></use></g></g><g><use xlink:href="#b29RwtzB2L" opacity="1" fill="#000000" fill-opacity="1"></use><g><use xlink:href="#b29RwtzB2L" opacity="1" fill-opacity="0" stroke="#000000" stroke-width="1" stroke-opacity="0"></use></g></g><g><use xlink:href="#alQWta190" opacity="1" fill="#000000" fill-opacity="1"></use><g><use xlink:href="#alQWta190" opacity="1" fill-opacity="0" stroke="#000000" stroke-width="1" stroke-opacity="0"></use></g></g></g></g></svg>