<?xml version="1.0" standalone="no"?>
<svg contentScriptType="text/ecmascript" xmlns:xlink="http://www.w3.org/1999/xlink" baseProfile="full" zoomAndPan="magnify"
    contentStyleType="text/css" viewBox="0 0 512 512" preserveAspectRatio="xMidYMid meet" xmlns="http://www.w3.org/2000/svg"
    version="1.0">
    <path d="M 209.72668 351.96002 C 130.18668 351.96002 65.726685 287.62003 65.726685 207.98003 C 65.726685 128.45003 
        130.07669 64.00003 209.72668 64.00003 C 289.2667 64.00003 353.72668 128.34003 353.72668 207.98003 C 353.72668 
        287.51 289.37668 351.96002 209.72668 351.96002 z M 505.89334 442.66 C 406.18335 342.97 406.18335 342.97 
        406.18335 342.97 C 401.68335 338.47 395.58334 335.97 389.18335 335.97 C 372.88336 335.97 372.88336 335.97 
        372.88336 335.97 C 400.48337 300.67 416.88336 256.28 416.88336 207.98001 C 416.88333 93.09 323.77335 0.0 
        208.87334 0.0 C 93.97333 0.0 0.85333335 93.09 0.85333335 207.98 C 0.85333335 322.87 93.96333 415.96 208.87334 
        415.96 C 257.17334 415.96 301.58334 399.56 336.88333 371.96 C 336.88333 388.25998 336.88333 388.25998 336.88333 
        388.25998 C 336.88333 394.65997 339.38333 400.75998 343.88333 405.25998 C 443.59332 504.95 443.59332 504.95 
        443.59332 504.95 C 452.99335 514.35 468.19333 514.35 477.49335 504.95 C 505.79327 476.65 505.79327 476.65 
        505.79327 476.65 C 515.1933 467.25 515.1933 452.06 505.89334 442.66 z"/>
</svg>